<svg width="60" height="173" viewBox="0 0 60 173" fill="none" xmlns="http://www.w3.org/2000/svg">
<path fill-rule="evenodd" clip-rule="evenodd" d="M58.8833 30.9979C57.3522 32.5903 54.82 32.6399 53.2276 31.1088L30 8.77457L6.77243 31.1088C5.18001 32.6399 2.64783 32.5903 1.11666 30.9979C-0.414514 29.4054 -0.364866 26.8733 1.22756 25.3421L25.8413 1.675C28.164 -0.55834 31.836 -0.55833 34.1586 1.675L58.7724 25.3421C60.3648 26.8733 60.4145 29.4054 58.8833 30.9979ZM58.8833 65.9979C57.3522 67.5903 54.82 67.6399 53.2276 66.1088L30 43.7746L6.77242 66.1088C5.18 67.6399 2.64783 67.5903 1.11666 65.9979C-0.414515 64.4054 -0.364867 61.8733 1.22756 60.3421L25.8413 36.675C28.164 34.4417 31.836 34.4417 34.1586 36.675L58.7724 60.3421C60.3648 61.8733 60.4145 64.4054 58.8833 65.9979ZM53.2276 101.109C54.82 102.64 57.3521 102.59 58.8833 100.998C60.4145 99.4054 60.3648 96.8733 58.7724 95.3421L34.1586 71.675C31.836 69.4417 28.164 69.4417 25.8413 71.675L1.22755 95.3421C-0.364869 96.8733 -0.414517 99.4054 1.11666 100.998C2.64783 102.59 5.18 102.64 6.77242 101.109L30 78.7746L53.2276 101.109ZM58.8833 135.998C57.3521 137.59 54.82 137.64 53.2276 136.109L30 113.775L6.77242 136.109C5.18 137.64 2.64783 137.59 1.11666 135.998C-0.414519 134.405 -0.36487 131.873 1.22755 130.342L25.8413 106.675C28.164 104.442 31.836 104.442 34.1586 106.675L58.7724 130.342C60.3648 131.873 60.4145 134.405 58.8833 135.998ZM53.2276 171.109C54.82 172.64 57.3521 172.59 58.8833 170.998C60.4145 169.405 60.3648 166.873 58.7724 165.342L34.1586 141.675C31.836 139.442 28.164 139.442 25.8413 141.675L1.22755 165.342C-0.364872 166.873 -0.41452 169.405 1.11665 170.998C2.64783 172.59 5.18 172.64 6.77242 171.109L30 148.775L53.2276 171.109Z" fill="#2C00A3"/>
</svg>
